<svg width="35" height="41" viewBox="0 0 35 41" fill="none" xmlns="http://www.w3.org/2000/svg">
<g filter="url(#filter0_d_119_43)">
<path d="M23.4 20.2144L18.3758 18.7809L17.4 11.4L16.4242 18.7809L11.4 20.2144L16.4242 21.6479L17.4 29.0288L18.3758 21.6479L23.4 20.2144Z" fill="#FFF9DD"/>
</g>
<g filter="url(#filter1_d_119_43)">
<path d="M19.1681 21.4219C20.383 21.0752 20.383 19.3536 19.1681 19.0069L18.9473 18.9439C18.6004 18.8449 18.3452 18.5494 18.2979 18.1917V18.1917C18.1592 17.1423 16.6408 17.1423 16.5021 18.1917V18.1917C16.4548 18.5494 16.1997 18.8449 15.8527 18.9439L15.6319 19.0069C14.4171 19.3536 14.4171 21.0752 15.6319 21.4219L15.8527 21.4849C16.1997 21.5839 16.4548 21.8794 16.5021 22.2371V22.2371C16.6408 23.2865 18.1592 23.2865 18.2979 22.2371V22.2371C18.3452 21.8794 18.6004 21.5839 18.9473 21.4849L19.1681 21.4219Z" fill="#FFF9DD"/>
</g>
<defs>
<filter id="filter0_d_119_43" x="2.47955e-05" y="2.47955e-05" width="34.8" height="40.4288" filterUnits="userSpaceOnUse" color-interpolation-filters="sRGB">
<feFlood flood-opacity="0" result="BackgroundImageFix"/>
<feColorMatrix in="SourceAlpha" type="matrix" values="0 0 0 0 0 0 0 0 0 0 0 0 0 0 0 0 0 0 127 0" result="hardAlpha"/>
<feOffset/>
<feGaussianBlur stdDeviation="5.7"/>
<feComposite in2="hardAlpha" operator="out"/>
<feColorMatrix type="matrix" values="0 0 0 0 0.954778 0 0 0 0 0.880872 0 0 0 0 0.551658 0 0 0 1 0"/>
<feBlend mode="normal" in2="BackgroundImageFix" result="effect1_dropShadow_119_43"/>
<feBlend mode="normal" in="SourceGraphic" in2="effect1_dropShadow_119_43" result="shape"/>
</filter>
<filter id="filter1_d_119_43" x="3.32083" y="6.00466" width="28.1584" height="28.4195" filterUnits="userSpaceOnUse" color-interpolation-filters="sRGB">
<feFlood flood-opacity="0" result="BackgroundImageFix"/>
<feColorMatrix in="SourceAlpha" type="matrix" values="0 0 0 0 0 0 0 0 0 0 0 0 0 0 0 0 0 0 127 0" result="hardAlpha"/>
<feOffset/>
<feGaussianBlur stdDeviation="5.7"/>
<feComposite in2="hardAlpha" operator="out"/>
<feColorMatrix type="matrix" values="0 0 0 0 0.954778 0 0 0 0 0.880872 0 0 0 0 0.551658 0 0 0 1 0"/>
<feBlend mode="normal" in2="BackgroundImageFix" result="effect1_dropShadow_119_43"/>
<feBlend mode="normal" in="SourceGraphic" in2="effect1_dropShadow_119_43" result="shape"/>
</filter>
</defs>
</svg>
